HIERARCHY
ROOT Hips
{
	OFFSET 0.000000 0.000000 0.000000
	CHANNELS 6 Xposition Yposition Zposition Xrotation Yrotation Zrotation
	JOINT LeftUpLeg_virtual
	{
		OFFSET 0.000000 0.000000 0.000000
		CHANNELS 3 Xrotation Yrotation Zrotation
		JOINT LeftUpLeg
		{
			OFFSET 11.394100 -6.187798 -0.413800
			CHANNELS 3 Xrotation Yrotation Zrotation
			JOINT LeftLeg
			{
				OFFSET 0.430247 -32.302673 3.732800
				CHANNELS 3 Xrotation Yrotation Zrotation
				JOINT LeftFoot
				{
					OFFSET -0.430247 -48.264931 -6.423300
					CHANNELS 3 Xrotation Yrotation Zrotation
					JOINT LeftToeBase
					{
						OFFSET 4.230900 -16.068199 23.438400
						CHANNELS 3 Xrotation Yrotation Zrotation
						JOINT LeftToe_End
						{
							OFFSET 4.510700 0.695400 19.974600
							CHANNELS 3 Xrotation Yrotation Zrotation
							End Site
							{
								OFFSET 0 0 0
							}
						}
					}
				}
			}
		}
	}
	JOINT RightUpLeg_virtual
	{
		OFFSET 0.000000 0.000000 0.000000
		CHANNELS 3 Xrotation Yrotation Zrotation
		JOINT RightUpLeg
		{
			OFFSET -11.333700 -6.187798 -0.413800
			CHANNELS 3 Xrotation Yrotation Zrotation
			JOINT RightLeg
			{
				OFFSET -0.430392 -32.302628 3.733000
				CHANNELS 3 Xrotation Yrotation Zrotation
				JOINT RightFoot
				{
					OFFSET 0.430392 -48.264973 -6.423500
					CHANNELS 3 Xrotation Yrotation Zrotation
					JOINT RightToeBase
					{
						OFFSET -4.230900 -16.068199 23.438400
						CHANNELS 3 Xrotation Yrotation Zrotation
						JOINT RightToe_End
						{
							OFFSET -4.510700 0.695400 19.974600
							CHANNELS 3 Xrotation Yrotation Zrotation
							End Site
							{
								OFFSET 0 0 0
							}
						}
					}
				}
			}
		}
	}
	JOINT Spine_virtual
	{
		OFFSET 0.000000 0.000000 0.000000
		CHANNELS 3 Xrotation Yrotation Zrotation
		JOINT Spine
		{
			OFFSET -0.002400 12.777504 0.315300
			CHANNELS 3 Xrotation Yrotation Zrotation
			JOINT Spine1
			{
				OFFSET -0.002067 5.816869 0.032633
				CHANNELS 3 Xrotation Yrotation Zrotation
				JOINT Spine1_split
				{
					OFFSET -0.002067 5.816869 0.032633
					CHANNELS 3 Xrotation Yrotation Zrotation
					JOINT Spine2
					{
						OFFSET -0.002067 5.816869 0.032633
						CHANNELS 3 Xrotation Yrotation Zrotation
						JOINT Neck_virtual
						{
							OFFSET 0.000000 0.000000 0.000000
							CHANNELS 3 Xrotation Yrotation Zrotation
							JOINT Neck
							{
								OFFSET -0.003700 21.199493 -0.826900
								CHANNELS 3 Xrotation Yrotation Zrotation
								JOINT Head
								{
									OFFSET 0.000000 20.442200 4.834800
									CHANNELS 3 Xrotation Yrotation Zrotation
									JOINT HeadTop_End
									{
										OFFSET 0.000000 34.668396 4.968400
										CHANNELS 3 Xrotation Yrotation Zrotation
										End Site
										{
											OFFSET 0 0 0
										}
									}
								}
							}
						}
						JOINT LeftShoulder_virtual
						{
							OFFSET 0.000000 0.000000 0.000000
							CHANNELS 3 Xrotation Yrotation Zrotation
							JOINT LeftShoulder
							{
								OFFSET 3.288150 8.794197 -1.372250
								CHANNELS 3 Xrotation Yrotation Zrotation
								JOINT LeftShoulder_split
								{
									OFFSET 3.288150 8.794197 -1.372250
									CHANNELS 3 Xrotation Yrotation Zrotation
									JOINT LeftArm
									{
										OFFSET 11.953299 -2.279007 -0.146200
										CHANNELS 3 Xrotation Yrotation Zrotation
										JOINT LeftForeArm
										{
											OFFSET 18.448900 0.000000 0.000000
											CHANNELS 3 Xrotation Yrotation Zrotation
											JOINT LeftHand
											{
												OFFSET 29.527798 0.000000 0.000000
												CHANNELS 3 Xrotation Yrotation Zrotation
												End Site
												{
													OFFSET 0 0 0
												}
											}
										}
									}
								}
							}
						}
						JOINT RightShoulder_virtual
						{
							OFFSET 0.000000 0.000000 0.000000
							CHANNELS 3 Xrotation Yrotation Zrotation
							JOINT RightShoulder
							{
								OFFSET -3.249400 8.794197 -1.372250
								CHANNELS 3 Xrotation Yrotation Zrotation
								JOINT RightShoulder_split
								{
									OFFSET -3.249400 8.794197 -1.372250
									CHANNELS 3 Xrotation Yrotation Zrotation
									JOINT RightArm
									{
										OFFSET -11.953299 -2.279007 -0.146200
										CHANNELS 3 Xrotation Yrotation Zrotation
										JOINT RightForeArm
										{
											OFFSET -18.448900 0.000000 0.000000
											CHANNELS 3 Xrotation Yrotation Zrotation
											JOINT RightHand
											{
												OFFSET -29.527802 0.000000 0.000000
												CHANNELS 3 Xrotation Yrotation Zrotation
												End Site
												{
													OFFSET 0 0 0
												}
											}
										}
									}
								}
							}
						}
					}
				}
			}
		}
	}
}
MOTION
Frames: 4
Frame Time: 0.03333333
3.195181 41.078419 -22.994801 0.000000 0.000000 0.000000 31.795354 -4.256805 6.115608 -59.987065 -11.095615 9.946790 126.462742 0.052474 -3.517532 7.517480 9.791839 -12.190297 28.542198 21.377683 37.517898 0.000000 0.000000 0.000000 33.925700 -0.627276 4.109744 -55.898063 14.506366 -25.845439 117.855474 8.055260 -7.382072 -2.297781 10.632866 25.610807 -33.285820 -8.651129 -53.680591 0.000000 0.000000 0.000000 30.154138 -0.358837 3.547679 20.256651 3.716063 -6.598822 17.544244 1.734457 -0.560929 -0.284865 2.308522 0.803820 0.000000 0.000000 0.000000 18.196227 2.143579 -1.539306 3.161753 -0.551274 2.361734 -3.368821 -8.715211 5.791491 0.000000 0.000000 0.000000 16.698798 1.833032 -1.603503 0.672753 -36.579177 -7.275560 1.762600 -3.564135 -0.540220 -59.168460 -42.438892 -54.544870 2.906531 -57.563660 3.243688 0.000000 0.000000 0.000000 15.739978 1.760388 -1.070253 -0.741837 12.478329 4.121410 -3.333667 -4.843197 -1.669561 -45.841296 18.937837 49.041141 -2.878584 68.667532 2.247810 0.000000 0.000000 0.000000 
3.033271 40.653450 -23.845463 0.000000 0.000000 0.000000 30.285557 -5.022275 5.898443 -58.517366 -11.050926 10.682469 126.949693 -0.180489 -3.482737 6.701590 9.914692 -11.994830 28.356575 21.409554 37.586374 0.000000 0.000000 0.000000 32.316039 -0.740041 3.834009 -55.826961 15.700064 -24.924059 118.163106 7.801867 -7.011629 -2.010600 10.103432 25.552790 -33.129983 -8.701956 -53.378031 0.000000 0.000000 0.000000 28.467849 -1.073776 3.599817 19.681743 3.448167 -7.168158 18.730189 1.685071 -1.014051 -0.142928 2.060011 1.000389 0.000000 0.000000 0.000000 19.295440 2.162606 -1.975862 3.037239 -0.284739 1.796765 -1.677585 -8.380681 6.446173 0.000000 0.000000 0.000000 17.834307 1.826672 -2.020876 0.282239 -33.935529 -9.200862 1.517499 -4.528969 -0.090027 -59.495783 -43.057888 -53.609882 3.254199 -57.573727 3.951244 0.000000 0.000000 0.000000 16.817961 1.713209 -1.467971 -0.673554 11.602986 4.207816 -3.197955 -4.649193 -1.490118 -48.483582 19.720344 51.346845 -2.517735 69.154306 1.873374 0.000000 0.000000 0.000000 
2.853920 40.385189 -24.854816 0.000000 0.000000 0.000000 28.627483 -5.995824 5.633923 -56.296984 -10.881723 11.622667 127.204227 -0.321544 -3.497153 5.772889 10.022168 -11.847050 28.236613 21.457871 37.663357 0.000000 0.000000 0.000000 30.575287 -1.306131 3.616104 -55.891800 16.883213 -23.669431 118.375730 7.589728 -6.754795 -1.289671 9.648146 25.649372 -32.716210 -8.869859 -52.913718 0.000000 0.000000 0.000000 26.565701 -2.102887 3.678360 19.150274 3.162848 -7.745295 19.540664 1.587655 -1.456418 -0.263399 1.747779 1.192058 0.000000 0.000000 0.000000 20.018617 2.140302 -2.395351 3.266641 0.065392 1.172561 0.326366 -7.987017 7.233976 0.000000 0.000000 0.000000 18.603692 1.779459 -2.391610 0.003212 -30.579225 -11.164332 1.426605 -5.248679 0.225237 -59.083793 -42.711902 -52.870995 3.747062 -59.380264 4.839782 0.000000 0.000000 0.000000 17.481101 1.584482 -1.861529 -0.542813 10.914066 4.320687 -3.053824 -4.690300 -1.200723 -51.121067 20.890067 55.079325 -2.355232 69.434747 1.836386 0.000000 0.000000 0.000000 
2.666283 40.249973 -25.829571 0.000000 0.000000 0.000000 26.971673 -7.240682 5.421952 -53.562180 -10.518147 12.622048 127.262530 -0.348754 -3.571138 4.681521 10.131098 -11.655150 28.167208 21.514531 37.731143 0.000000 0.000000 0.000000 28.867248 -2.294658 3.481095 -55.804476 17.914601 -22.181816 118.456422 7.445494 -6.654356 -0.409942 9.285447 25.849467 -32.521017 -8.873320 -52.437118 0.000000 0.000000 0.000000 24.599042 -3.430600 3.788118 18.757264 2.854514 -8.306186 20.033319 1.436886 -1.788268 -0.464782 1.328746 1.429701 0.000000 0.000000 0.000000 20.431111 2.051766 -2.712592 3.742578 0.477647 0.604405 2.394425 -7.571946 7.993532 0.000000 0.000000 0.000000 19.077236 1.671896 -2.631547 -0.121100 -26.993703 -12.860615 1.547925 -5.544510 0.467280 -57.982801 -41.507251 -52.562892 4.201698 -62.413510 5.658688 0.000000 0.000000 0.000000 17.813987 1.396754 -2.154963 -0.383176 10.416811 4.381469 -3.042938 -4.905984 -0.867034 -53.587919 22.221168 59.728105 -2.600362 68.969024 2.294257 0.000000 0.000000 0.000000 
